<svg width="1537" height="436" viewBox="0 0 1537 436" fill="none" xmlns="http://www.w3.org/2000/svg">
<path d="M244.969 155.167L177.71 323.313C177.71 323.313 231.517 331.48 244.969 323.313C258.42 315.146 249.795 256.368 279.078 256.535C308.277 256.702 291.569 304.577 312.708 323.313C333.846 342.05 380.447 323.313 380.447 323.313L312.708 155.167C285.797 86.3926 270.977 87.815 244.969 155.167Z" fill="#0092FF"/>
<path d="M407.136 122.018C394.645 139.794 407.136 323.794 407.136 323.794C407.136 323.794 469.591 331 475.356 323.794C481.12 316.587 462.384 262.3 475.356 256.535C488.327 250.77 497.455 288.723 508.504 289.204C519.554 289.684 530.604 248.368 541.653 256.535C552.703 264.702 536.369 319.47 541.653 323.794C546.938 328.117 609.872 323.794 609.872 323.794C609.872 323.794 620.922 140.755 609.872 122.018C598.823 103.282 529.162 219.543 508.504 222.426C487.846 225.308 419.627 104.243 407.136 122.018Z" fill="#0092FF"/>
<path d="M766.363 319L720.013 238.467H694.81V319H661.785V117.667H731.311C746.761 117.667 759.797 120.37 770.419 125.778C781.234 131.185 789.248 138.428 794.463 147.505C799.87 156.581 802.574 166.721 802.574 177.922C802.574 191.054 798.711 203.028 790.986 213.843C783.455 224.465 771.77 231.707 755.934 235.57L805.76 319H766.363ZM694.81 212.105H731.311C743.671 212.105 752.941 209.015 759.121 202.835C765.494 196.655 768.68 188.351 768.68 177.922C768.68 167.493 765.59 159.382 759.41 153.588C753.23 147.601 743.864 144.608 731.311 144.608H694.81V212.105ZM877.845 117.667V319H844.821V117.667H877.845ZM987.542 321.028C974.023 321.028 961.856 318.71 951.041 314.075C940.226 309.247 931.729 302.488 925.549 293.797C919.369 285.106 916.279 274.967 916.279 263.38H951.621C952.393 272.071 955.773 279.216 961.76 284.817C967.94 290.417 976.534 293.218 987.542 293.218C998.936 293.218 1007.82 290.514 1014.19 285.106C1020.57 279.506 1023.75 272.36 1023.75 263.67C1023.75 256.91 1021.73 251.406 1017.67 247.157C1013.81 242.909 1008.88 239.625 1002.9 237.308C997.102 234.99 988.991 232.48 978.562 229.776C965.429 226.3 954.711 222.824 946.406 219.347C938.295 215.678 931.343 210.077 925.549 202.545C919.755 195.013 916.858 184.971 916.858 172.418C916.858 160.83 919.755 150.691 925.549 142.001C931.343 133.31 939.454 126.647 949.883 122.012C960.311 117.377 972.382 115.059 986.094 115.059C1005.6 115.059 1021.53 119.984 1033.89 129.834C1046.45 139.49 1053.4 152.816 1054.75 169.811H1018.25C1017.67 162.472 1014.19 156.195 1007.82 150.981C1001.45 145.766 993.046 143.159 982.617 143.159C973.154 143.159 965.429 145.573 959.442 150.401C953.455 155.23 950.462 162.182 950.462 171.259C950.462 177.439 952.297 182.557 955.966 186.612C959.829 190.475 964.657 193.565 970.45 195.883C976.244 198.2 984.162 200.711 994.205 203.414C1007.53 207.084 1018.35 210.753 1026.65 214.423C1035.15 218.092 1042.29 223.789 1048.09 231.514C1054.07 239.046 1057.07 249.185 1057.07 261.931C1057.07 272.167 1054.27 281.823 1048.67 290.9C1043.26 299.977 1035.24 307.316 1024.62 312.917C1014.19 318.324 1001.83 321.028 987.542 321.028ZM1256.81 117.667V319H1223.79V230.935H1129.06V319H1096.03V117.667H1129.06V203.994H1223.79V117.667H1256.81ZM1333.31 117.667V319H1300.29V117.667H1333.31Z" fill="#474242"/>
<rect x="13.4203" y="25.2754" width="1510.2" height="398.087" rx="50.5507" stroke="black" stroke-width="25.2754"/>
</svg>